<svg width="37" height="33" viewBox="0 0 37 33" fill="none" xmlns="http://www.w3.org/2000/svg">
<path d="M24.1099 21.225C22.8364 20.7791 22.3279 19.5535 22.3279 19.5535C22.3279 19.5535 21.7542 19.8311 21.7542 19.0515C21.7542 18.2719 22.3279 19.5535 22.9017 16.5433C22.9017 16.5433 24.4913 16.1525 24.1729 12.9208H23.7904C23.7904 12.9208 24.7467 9.46566 23.7904 8.29426C22.8342 7.12482 22.4539 6.34519 20.3513 5.78705C18.2487 5.22891 19.0148 5.34015 17.4859 5.39724C15.9571 5.45433 14.6824 6.17785 14.6824 6.56865C14.6824 6.56865 13.7262 6.62377 13.3459 6.95846C12.9634 7.29315 12.3267 8.8524 12.3267 9.24221C12.3267 9.63202 12.6451 12.2544 12.9634 12.8106L12.5843 12.9228C12.2648 16.1545 13.8556 16.5453 13.8556 16.5453C14.4293 19.5555 15.0031 18.2739 15.0031 19.0535C15.0031 19.8331 14.4293 19.5555 14.4293 19.5555C14.4293 19.5555 13.9208 20.7811 12.6473 21.227C11.3738 21.6729 4.30432 24.0679 3.72945 24.5699C3.15345 25.0719 3.2187 27.4128 3.2187 27.4128H33.5341C33.5341 27.4128 33.6016 25.0729 33.0256 24.5699C32.4518 24.0679 25.3812 21.6719 24.1077 21.227L24.1099 21.225ZM10.0812 21.0557C9.9687 20.8785 9.9147 20.7505 9.9147 20.7505C9.9147 20.7505 9.4287 20.9868 9.4287 20.3253C9.4287 19.6638 9.91469 20.7505 10.4007 18.199C10.4007 18.199 11.7507 17.8693 11.4807 15.1298H11.1544C11.1544 15.1298 11.3164 14.549 11.4222 13.8166C11.4174 13.4894 11.4313 13.1622 11.4638 12.8362L11.5066 12.4168C11.4841 11.9325 11.3862 11.4915 11.1556 11.21C10.3456 10.2187 10.0216 9.55622 8.24182 9.08372C6.45982 8.61122 7.10557 8.70572 5.81182 8.75396C4.51582 8.80318 3.43582 9.41546 3.43582 9.74818C3.43582 9.74818 2.62582 9.79444 2.30182 10.0779C1.99807 10.3437 1.5087 11.5171 1.4502 11.9335V12.2091C1.5042 12.8529 1.7427 14.6208 1.97895 15.0372L1.6572 15.1317C1.3872 17.8703 2.7372 18.201 2.7372 18.201C3.22095 20.7505 3.70807 19.6658 3.70807 20.3273C3.70807 20.9888 3.22207 20.7505 3.22207 20.7505C3.22207 20.7505 2.7912 21.792 1.7112 22.168L1.4502 22.2586V27.4108H2.09707C2.06332 26.1528 2.1837 24.5296 2.93632 23.873C3.33795 23.5235 4.65082 22.9477 10.0834 21.0557H10.0812ZM35.2024 12.1412C35.1574 11.7691 35.0596 11.4374 34.8739 11.21C34.0662 10.2177 33.7411 9.55622 31.9602 9.08372C30.1793 8.61122 30.8273 8.70572 29.5302 8.75396C28.2364 8.80318 27.1564 9.41546 27.1564 9.74818C27.1564 9.74818 26.3464 9.79444 26.0224 10.0779C25.7187 10.3457 25.2237 11.5269 25.1697 11.9384H25.2068L25.2968 12.8381C25.3193 13.0645 25.3216 13.2663 25.3272 13.4721C25.4284 14.1277 25.5634 14.801 25.6984 15.0372L25.3767 15.1307C25.1067 17.8693 26.4567 18.2 26.4567 18.2C26.9427 20.7496 27.4276 19.6648 27.4276 20.3263C27.4276 20.9878 26.9438 20.7496 26.9438 20.7496C26.9438 20.7496 26.8831 20.8903 26.7593 21.0842C32.1256 22.9546 33.4272 23.5255 33.8243 23.873C34.5781 24.5305 34.6951 26.1528 34.6624 27.4118H35.2024V22.1897L35.1462 22.168C34.0662 21.791 33.6342 20.7505 33.6342 20.7505C33.6342 20.7505 33.1471 20.9868 33.1471 20.3273C33.1471 19.6677 33.6342 20.7505 34.1191 18.201C34.1191 18.201 35.0236 17.9746 35.2024 16.3898V15.1809C35.2024 15.1639 35.2013 15.1475 35.1991 15.1317H34.8728C34.8728 15.1317 35.1158 14.2556 35.2024 13.2988V12.1412Z" fill="#50341F"/>
</svg>
